<svg width="180" height="43" viewBox="0 0 180 43" fill="none" xmlns="http://www.w3.org/2000/svg">
<path d="M15.3335 17.191L30.6669 5.02512L46.0001 17.191L30.6669 29.3571L15.3335 17.191" fill="white"/>
<path d="M0 17.191L15.3334 5.02518L30.6669 17.191L15.3334 29.3571L0 17.191" fill="#3B557D"/>
<path d="M52.3203 29.562V33.7183H49.2344V22.2964H52.9766C56.0807 22.2964 57.6328 23.4214 57.6328 25.6714C57.6328 26.9943 56.987 28.0177 55.6953 28.7417L59.0234 33.7183H55.5234L53.1016 29.562H52.3203ZM52.3203 27.2417H52.8984C53.9766 27.2417 54.5156 26.7651 54.5156 25.812C54.5156 25.0256 53.987 24.6323 52.9297 24.6323H52.3203V27.2417ZM69.7734 22.2964V29.1714C69.7734 30.6662 69.349 31.825 68.5 32.6479C67.6562 33.4657 66.4375 33.8745 64.8438 33.8745C63.2865 33.8745 62.0885 33.4761 61.25 32.6792C60.4167 31.8823 60 30.7365 60 29.2417V22.2964H63.1016V28.9995C63.1016 29.8068 63.2526 30.3927 63.5547 30.7573C63.8568 31.1219 64.3021 31.3042 64.8906 31.3042C65.5208 31.3042 65.9766 31.1245 66.2578 30.7651C66.5443 30.4006 66.6875 29.8068 66.6875 28.9839V22.2964H69.7734ZM72.1719 22.2964H76.1562C77.7083 22.2964 78.8594 22.5282 79.6094 22.9917C80.3646 23.45 80.7422 24.1662 80.7422 25.1401C80.7422 25.7808 80.5781 26.3276 80.25 26.7808C79.9219 27.2339 79.4896 27.5256 78.9531 27.6558V27.7339C79.6615 27.9214 80.1745 28.2339 80.4922 28.6714C80.8099 29.1089 80.9688 29.6766 80.9688 30.3745C80.9688 31.411 80.5781 32.2287 79.7969 32.8276C79.0208 33.4214 77.9609 33.7183 76.6172 33.7183H72.1719V22.2964ZM75.2578 26.6792H76.1875C76.6302 26.6792 76.9714 26.5881 77.2109 26.4058C77.4557 26.2235 77.5781 25.9526 77.5781 25.5933C77.5781 24.9526 77.0938 24.6323 76.125 24.6323H75.2578V26.6792ZM75.2578 28.937V31.3354H76.3438C77.3073 31.3354 77.7891 30.9292 77.7891 30.1167C77.7891 29.7365 77.6589 29.4448 77.3984 29.2417C77.1432 29.0386 76.7708 28.937 76.2812 28.937H75.2578ZM89.7344 33.7183H82.9531V22.2964H89.7344V24.7729H86.0391V26.5698H89.4609V29.0464H86.0391V31.2026H89.7344V33.7183ZM102.609 33.7183H98.5625L94.3906 25.6714H94.3203C94.4193 26.937 94.4688 27.9032 94.4688 28.5698V33.7183H91.7344V22.2964H95.7656L99.9219 30.2339H99.9688C99.8958 29.0828 99.8594 28.1584 99.8594 27.4604V22.2964H102.609V33.7183ZM109.156 26.5308L111.125 22.2964H114.469L110.711 29.2573V33.7183H107.602V29.3511L103.844 22.2964H107.203L109.156 26.5308ZM122.711 33.7183L122.148 31.5776H118.438L117.859 33.7183H114.469L118.195 22.2495H122.312L126.086 33.7183H122.711ZM121.508 29.0464L121.016 27.1714C120.901 26.7547 120.76 26.2157 120.594 25.5542C120.432 24.8927 120.326 24.4188 120.273 24.1323C120.227 24.3979 120.133 24.8354 119.992 25.4448C119.857 26.0542 119.552 27.2547 119.078 29.0464H121.508ZM138.203 33.7183H134.156L129.984 25.6714H129.914C130.013 26.937 130.062 27.9032 130.062 28.5698V33.7183H127.328V22.2964H131.359L135.516 30.2339H135.562C135.49 29.0828 135.453 28.1584 135.453 27.4604V22.2964H138.203V33.7183Z" fill="#3B557D"/>
</svg>
